<svg width="38" height="30" viewBox="0 0 38 30" fill="none" xmlns="http://www.w3.org/2000/svg">
<path d="M12.52 29.18C13.24 29.84 14.2 29.84 14.92 29.18C15.22 28.88 15.58 28.52 15.88 28.22L16 28.16C16.42 27.74 16.78 27.38 17.14 27.02C17.5 26.66 17.86 26.3 18.22 25.94L19.18 24.98C19.9 24.26 20.62 23.6 21.34 22.82L29.74 14.48C30.52 13.76 31.3 12.92 32.08 12.2L32.98 11.3C33.58 10.7 34.3 10.04 34.9 9.43999L37.06 7.33999C37.72 6.67999 37.72 5.59999 37.06 4.93999C36.46 4.27999 35.74 3.61999 35.14 3.01999C34.84 2.71999 34.48 2.35999 34.18 2.05999L33.28 1.15999C32.92 0.859993 32.56 0.679993 32.2 0.679993C31.78 0.679993 31.36 0.859993 31 1.09999V1.03999L30.94 1.09999C30.82 1.21999 30.82 1.21999 30.76 1.27999L25.36 6.55999C23.62 8.29999 21.82 10.04 20.08 11.78L15.46 16.34C15.28 16.52 14.98 16.82 14.74 17.06L13.84 17.96L7.41997 11.78C7.23997 11.6 6.99997 11.36 6.81997 11.18C6.57997 11 6.27996 11 5.97996 11C5.55997 11 5.07997 11.18 4.71997 11.54L1.05997 15.2C0.879966 15.38 0.699966 15.56 0.639965 15.74C0.219966 16.4 0.399965 17.18 0.879965 17.78C1.23997 18.14 1.53997 18.5 1.89997 18.8C2.07997 18.98 2.25997 19.16 2.43997 19.34L12.16 29C12.34 29 12.46 29.12 12.52 29.18Z" fill="#95CE5A"/>
<path d="M12.52 29.18C13.24 29.84 14.2 29.84 14.92 29.18C15.22 28.88 15.58 28.52 15.88 28.22L16 28.16C16.42 27.74 16.78 27.38 17.14 27.02C17.5 26.66 17.86 26.3 18.22 25.94L19.18 24.98C19.9 24.26 20.62 23.6 21.34 22.82L29.74 14.48C30.52 13.76 31.3 12.92 32.08 12.2L32.98 11.3C33.58 10.7 34.3 10.04 34.9 9.43999L37.06 7.33999C37.72 6.67999 37.72 5.59999 37.06 4.93999C36.46 4.27999 35.74 3.61999 35.14 3.01999C34.84 2.71999 34.48 2.35999 34.18 2.05999L33.28 1.15999C32.92 0.859993 32.56 0.679993 32.2 0.679993C31.78 0.679993 31.36 0.859993 31 1.09999V1.03999L30.94 1.09999C30.82 1.21999 30.82 1.21999 30.76 1.27999L25.36 6.55999C23.62 8.29999 21.82 10.04 20.08 11.78L15.46 16.34C15.28 16.52 14.98 16.82 14.74 17.06L13.84 17.96L7.41997 11.78C7.23997 11.6 6.99997 11.36 6.81997 11.18C6.57997 11 6.27996 11 5.97996 11C5.55997 11 5.07997 11.18 4.71997 11.54L1.05997 15.2C0.879966 15.38 0.699966 15.56 0.639965 15.74C0.219966 16.4 0.399965 17.18 0.879965 17.78C1.23997 18.14 1.53997 18.5 1.89997 18.8C2.07997 18.98 2.25997 19.16 2.43997 19.34L12.16 29C12.34 29 12.46 29.12 12.52 29.18ZM3.33997 15.74C3.45997 15.62 3.51997 15.56 3.63997 15.44L5.91997 13.16L13 20.24C13.42 20.66 14.02 20.66 14.44 20.24L20.5 14.24C21.4 13.34 22.24 12.5 23.14 11.66C23.98 10.82 24.82 9.97999 25.6 9.19999L31.96 2.89999L35.26 6.19999L34.24 7.15999C34 7.39999 33.7 7.75999 33.4 8.05999L16.18 25.1C15.88 25.4 15.52 25.76 15.22 26.06L13.72 27.56L12.82 26.66L2.61997 16.46L3.33997 15.74Z" fill="#333E50"/>
</svg>
