<svg width="35" height="35" viewBox="0 0 35 35" fill="none" xmlns="http://www.w3.org/2000/svg">
<circle cx="17.5" cy="17.5" r="17" stroke="#ADB4BF"/>
	<path fill-rule="evenodd" clip-rule="evenodd" d="M15 30C23.2843 30 30 23.2842 30 15C30 6.71582 23.2843 0 15 0C6.7157 0 0 6.71582 0 15C0 23.2842 6.7157 30 15 30ZM7.6001 12.0088C7.6001 9.57715 9.57788 7.59961 12.009 7.59961H17.9911C20.4221 7.59961 22.4 9.57715 22.4 12.0088V17.9907C22.4 20.4219 20.4222 22.3999 17.9911 22.3999H12.009C9.57788 22.3999 7.6001 20.4219 7.6001 17.9907V12.0088ZM17.9911 20.9111C19.6038 20.9111 20.9113 19.6035 20.9113 17.9907V12.0088C20.9113 10.396 19.6038 9.08838 17.9911 9.08838H12.009C10.3964 9.08838 9.08887 10.396 9.08887 12.0088V17.9907C9.08887 19.6035 10.3964 20.9111 12.009 20.9111H17.9911ZM15.0001 11.1714C12.8894 11.1714 11.1722 12.8887 11.1722 14.999C11.1722 17.1099 12.8894 18.8271 15.0001 18.8271C17.1107 18.8271 18.8279 17.1099 18.8279 14.999C18.8279 12.8887 17.1107 11.1714 15.0001 11.1714ZM15.0001 17.3384C13.7084 17.3384 12.6611 16.2915 12.6611 14.999C12.6611 13.7075 13.7084 12.6602 15.0001 12.6602C16.2919 12.6602 17.339 13.7075 17.339 14.999C17.339 16.2915 16.2919 17.3384 15.0001 17.3384ZM19.7524 11.2007C19.7524 11.707 19.3418 12.1177 18.8353 12.1177C18.3287 12.1177 17.9181 11.707 17.9181 11.2007C17.9181 10.6938 18.3287 10.2832 18.8353 10.2832C19.3418 10.2832 19.7524 10.6938 19.7524 11.2007Z" fill="#ADB4BF"/>
</svg>

