<svg width="35" height="35" fill="none" xmlns="http://www.w3.org/2000/svg">
  <circle id="svg_1" stroke="#ADB4BF" r="17" cy="17.5" cx="17.5"/>
  <path id="svg_2" clip-rule="evenodd" fill-rule="evenodd" fill="#ADB4BF" d="m17.472521,32.472521c8.2843,0 15,-6.7158 15,-15c0,-8.28418 -6.7157,-15 -15,-15c-8.2843,0 -15,6.71582 -15,15c0,8.2842 6.7157,15 15,15zm-7.3999,-17.9912c0,-2.43165 1.97778,-4.40919 4.4089,-4.40919l5.9821,0c2.431,0 4.4089,1.97754 4.4089,4.40919l0,5.9819c0,2.4312 -1.9778,4.4092 -4.4089,4.4092l-5.9821,0c-2.43112,0 -4.4089,-1.978 -4.4089,-4.4092l0,-5.9819zm10.391,8.9023c1.6127,0 2.9202,-1.3076 2.9202,-2.9204l0,-5.9819c0,-1.6128 -1.3075,-2.92042 -2.9202,-2.92042l-5.9821,0c-1.6126,0 -2.92013,1.30762 -2.92013,2.92042l0,5.9819c0,1.6128 1.30753,2.9204 2.92013,2.9204l5.9821,0zm-2.991,-9.7397c-2.1107,0 -3.8279,1.7173 -3.8279,3.8276c0,2.1109 1.7172,3.8281 3.8279,3.8281c2.1106,0 3.8278,-1.7172 3.8278,-3.8281c0,-2.1103 -1.7172,-3.8276 -3.8278,-3.8276zm0,6.167c-1.2917,0 -2.339,-1.0469 -2.339,-2.3394c0,-1.2915 1.0473,-2.3388 2.339,-2.3388c1.2918,0 2.3389,1.0473 2.3389,2.3388c0,1.2925 -1.0471,2.3394 -2.3389,2.3394zm4.7523,-6.1377c0,0.5063 -0.4106,0.917 -0.9171,0.917c-0.5066,0 -0.9172,-0.4107 -0.9172,-0.917c0,-0.5069 0.4106,-0.9175 0.9172,-0.9175c0.5065,0 0.9171,0.4106 0.9171,0.9175z" />
 </svg>