<svg width="20" height="17" viewBox="0 0 20 17" fill="none" xmlns="http://www.w3.org/2000/svg">
<path d="M19.94 9.19701C19.9 8.85577 19.8 8.55466 19.64 8.31378C20 7.95246 20 7.35025 20 7.08929C20 5.16224 18.42 5.16224 17.74 5.16224H13.66C14.34 2.17128 13.52 0.605544 12.46 0.143853C11.66 -0.197398 10.76 0.083632 10.32 0.826353C10.28 0.886573 10.26 0.966867 10.26 1.04716V3.09466C10.26 3.25525 10.2 3.43591 10.14 3.61657C9.72 4.82099 8.9 5.88488 7.6 6.90863C7.5 6.98893 7.42 7.06922 7.34 7.16959C7.06 7.51084 6.54 7.73165 6.06 7.73165C6.04 7.73165 6.02 7.73165 6 7.73165V7.29003C6 7.04915 5.8 6.86849 5.58 6.86849H0.42C0.18 6.86849 0 7.06922 0 7.29003V15.8815C0 16.1224 0.2 16.303 0.42 16.303H5.56C5.8 16.303 5.98 16.1023 5.98 15.8815V15.46H6.5C6.86 15.46 7.2 15.6005 7.46 15.8414C7.78 16.1425 8.2 16.303 8.68 16.303H15.7C16.64 16.303 17.44 15.9417 17.94 15.2592C18.32 14.7574 18.5 14.115 18.46 13.5329C18.84 13.3121 19.14 12.9508 19.32 12.5091C19.52 11.9872 19.54 11.3449 19.36 10.843C19.78 10.4817 20 9.85944 19.94 9.19701ZM5.14 15.5001H0.86V7.77179H5.14V15.5001ZM15.42 8.61488H18.74C18.92 8.73532 19.06 8.97621 19.08 9.27731C19.12 9.59849 19.02 10.0401 18.68 10.3412H15.42C15.18 10.3412 15 10.5419 15 10.7628C15 11.0036 15.2 11.1843 15.42 11.1843H18.56C18.64 11.4854 18.66 11.8869 18.52 12.2482C18.44 12.469 18.26 12.7701 17.9 12.9106H15.42C15.18 12.9106 15 13.1114 15 13.3322C15 13.573 15.2 13.7537 15.42 13.7537H17.62C17.62 14.0749 17.52 14.4362 17.28 14.7775C17.04 15.0986 16.58 15.48 15.72 15.48H8.68C8.42 15.48 8.22 15.3997 8.06 15.2592C7.64 14.8578 7.08 14.6369 6.5 14.6369H6V8.61488C6.02 8.61488 6.04 8.61488 6.06 8.61488C6.8 8.61488 7.56 8.27363 8 7.73165C8.04 7.6915 8.08 7.63128 8.14 7.59113C9.56 6.46701 10.48 5.2626 10.96 3.8976C11.04 3.67679 11.14 3.39576 11.14 3.09466V1.18768C11.38 0.886573 11.78 0.786205 12.14 0.946794C12.9 1.26797 13.5 2.65304 12.72 5.48341C12.68 5.62393 12.72 5.74437 12.8 5.86481C12.88 5.96518 13 6.0254 13.14 6.0254H17.78C18.86 6.0254 19.18 6.26628 19.18 7.08929C19.18 7.73165 19.06 7.73165 18.88 7.73165H15.42C15.18 7.73165 15 7.93238 15 8.15319C14.98 8.43422 15.18 8.61488 15.42 8.61488Z" fill="#8DC63F"/>
</svg>
