<svg width="20" height="17" viewBox="0 0 20 17" fill="none" xmlns="http://www.w3.org/2000/svg">
<path d="M19.94 7.80299C19.9 8.14423 19.8 8.44534 19.64 8.68622C20 9.04754 20 9.64975 20 9.91071C20 11.8378 18.42 11.8378 17.74 11.8378H13.66C14.34 14.8287 13.52 16.3945 12.46 16.8561C11.66 17.1974 10.76 16.9164 10.32 16.1736C10.28 16.1134 10.26 16.0331 10.26 15.9528V13.9053C10.26 13.7447 10.2 13.5641 10.14 13.3834C9.72 12.179 8.9 11.1151 7.6 10.0914C7.5 10.0111 7.42 9.93078 7.34 9.83041C7.06 9.48916 6.54 9.26835 6.06 9.26835C6.04 9.26835 6.02 9.26835 6 9.26835V9.70997C6 9.95085 5.8 10.1315 5.58 10.1315H0.42C0.18 10.1315 0 9.93078 0 9.70997L0 1.1185C0 0.877615 0.2 0.696955 0.42 0.696955H5.56C5.8 0.696955 5.98 0.89769 5.98 1.1185V1.54004H6.5C6.86 1.54004 7.2 1.39953 7.46 1.15865C7.78 0.857544 8.2 0.696955 8.68 0.696955L15.7 0.696955C16.64 0.696955 17.44 1.05828 17.94 1.74078C18.32 2.24262 18.5 2.88497 18.46 3.4671C18.84 3.68791 19.14 4.04923 19.32 4.49085C19.52 5.01276 19.54 5.65512 19.36 6.15695C19.78 6.51828 20 7.14056 19.94 7.80299ZM5.14 1.4999H0.86L0.86 9.22821H5.14L5.14 1.4999ZM15.42 8.38512H18.74C18.92 8.26468 19.06 8.02379 19.08 7.72269C19.12 7.40151 19.02 6.9599 18.68 6.65879H15.42C15.18 6.65879 15 6.45806 15 6.23725C15 5.99637 15.2 5.81571 15.42 5.81571H18.56C18.64 5.5146 18.66 5.11313 18.52 4.75181C18.44 4.531 18.26 4.2299 17.9 4.08938H15.42C15.18 4.08938 15 3.88865 15 3.66784C15 3.42696 15.2 3.24629 15.42 3.24629H17.62C17.62 2.92512 17.52 2.56379 17.28 2.22254C17.04 1.90137 16.58 1.51997 15.72 1.51997H8.68C8.42 1.51997 8.22 1.60026 8.06 1.74078C7.64 2.14225 7.08 2.36306 6.5 2.36306H6L6 8.38512C6.02 8.38512 6.04 8.38512 6.06 8.38512C6.8 8.38512 7.56 8.72637 8 9.26835C8.04 9.3085 8.08 9.36872 8.14 9.40887C9.56 10.533 10.48 11.7374 10.96 13.1024C11.04 13.3232 11.14 13.6042 11.14 13.9053V15.8123C11.38 16.1134 11.78 16.2138 12.14 16.0532C12.9 15.732 13.5 14.347 12.72 11.5166C12.68 11.3761 12.72 11.2556 12.8 11.1352C12.88 11.0348 13 10.9746 13.14 10.9746H17.78C18.86 10.9746 19.18 10.7337 19.18 9.91071C19.18 9.26835 19.06 9.26835 18.88 9.26835L15.42 9.26835C15.18 9.26835 15 9.06762 15 8.84681C14.98 8.56578 15.18 8.38512 15.42 8.38512Z" fill="#F13C3C"/>
</svg>
