<svg width="25" height="14" viewBox="0 0 25 14" fill="none" xmlns="http://www.w3.org/2000/svg">
<path d="M13.625 8.2522L17.3333 12.2346C17.5208 12.4399 17.8333 12.4399 18.0417 12.2551C18.25 12.0704 18.25 11.7625 18.0625 11.5572L14.3542 7.59531L13.625 8.2522Z" fill="#95CE5A"/>
<path d="M1.95827 12.2551C2.16661 12.4399 2.47911 12.4194 2.66661 12.2346L6.41661 8.19061L5.68744 7.53372L1.93744 11.5572C1.74994 11.7625 1.74994 12.0704 1.95827 12.2551Z" fill="#95CE5A"/>
<path d="M10.3749 8.68328C10.1666 8.88856 9.83325 8.88856 9.62492 8.68328L2.60409 1.76539C2.41659 1.58064 2.10409 1.58064 1.89575 1.76539C1.70825 1.95014 1.70825 2.25806 1.89575 2.46334L8.91658 9.38123C9.20825 9.66862 9.58325 9.81231 9.99992 9.81231C10.4166 9.81231 10.7916 9.64809 11.0833 9.38123L18.0833 2.46334C18.2708 2.27859 18.2708 1.97067 18.0833 1.76539C17.8958 1.58064 17.5832 1.58064 17.3749 1.76539L10.3749 8.68328Z" fill="#95CE5A"/>
<path d="M17.8333 0H2.14583C0.958333 0 0 0.944281 0 2.11437V11.8856C0 13.0557 0.958333 14 2.14583 14H17.8542C19.0417 14 20 13.0557 20 11.8856V2.11437C20 0.944281 19.0208 0 17.8333 0ZM19 11.8856C19 12.522 18.4792 13.0147 17.8542 13.0147H2.14583C1.52083 13.0147 1 12.5015 1 11.8856V2.11437C1 1.47801 1.52083 0.985337 2.14583 0.985337H17.8542C18.4792 0.985337 19 1.49853 19 2.11437V11.8856Z" fill="#95CE5A"/>
</svg>
