<svg width="14" height="15" viewBox="0 0 14 15" fill="none" xmlns="http://www.w3.org/2000/svg">
<path d="M0 13.2318V14.1608C0 14.6104 0.380562 15 0.822014 15H13.1066C13.5632 15 13.9286 14.6254 13.9286 14.1608V13.2617C13.9286 12.1528 13.3806 11.1339 12.4824 10.5495C10.6101 9.36563 9.65105 8.82617 9.33138 8.64635L9.14871 8.54146L9.28572 8.39161C10.2143 7.37263 10.808 5.78422 10.808 4.25574C10.808 1.78322 9.24005 0 7.06323 0C4.90164 0 3.33372 1.76823 3.33372 4.22577C3.33372 5.70929 3.89696 7.26773 4.79508 8.3017L4.93208 8.46653L4.73419 8.57143C3.95785 8.97602 2.80094 9.66533 1.40047 10.5495C0.532787 11.1189 0 12.1229 0 13.2318ZM1.78103 11.0589C3.09016 10.2498 5.17564 8.99101 5.58665 8.85614H5.6171C5.73888 8.82617 5.84543 8.73626 5.87588 8.61638C5.90632 8.4965 5.86066 8.34665 5.7541 8.25674C4.71897 7.44755 4.00351 5.78422 4.00351 4.1958C4.00351 2.0979 5.2822 0.614386 7.09368 0.614386C8.90515 0.614386 10.1838 2.0979 10.1838 4.1958C10.1838 5.82917 9.43794 7.52248 8.37236 8.31668C8.26581 8.39161 8.22014 8.51149 8.25059 8.64635C8.26581 8.75125 8.37236 8.85614 8.47892 8.88611H8.49415C8.78337 9.00599 10.5796 10.0849 12.1171 11.0589C12.8173 11.5085 13.2588 12.3477 13.2588 13.2168V14.2957L13.0913 14.3107H0.654567V13.2018C0.654567 12.3327 1.0808 11.5085 1.78103 11.0589Z" fill="#ADB4BF"/>
</svg>
