<svg width="42" height="42" viewBox="0 0 42 42" fill="none" xmlns="http://www.w3.org/2000/svg">
<circle cx="21" cy="21" r="20.5" fill="#F1F4F7" stroke="#CDD3DD"/>
<mask id="mask0" mask-type="alpha" maskUnits="userSpaceOnUse" x="1" y="1" width="40" height="40">
<circle cx="21" cy="21" r="19.5" fill="#F1F4F7" stroke="#CDD3DD"/>
</mask>
<g mask="url(#mask0)">
<path d="M38 7H4V41H38V7Z" fill="#F1F4F7"/>
<path d="M23.8759 11L12.6253 17.2782L12.0663 24.2614L12.241 30.976L7.10482 33.4604L7 35.8441L22.653 39L36 33.964L31.1084 31.7146L29.8157 28.5252L29.5711 22.3813L29.9205 17.3453L23.8759 11Z" fill="white"/>
<path d="M37 37.158C37 37.09 37 37.056 37 36.988V36.954C37 36.75 36.932 36.546 36.8639 36.342C35.5371 32.84 33.3598 31.718 31.4546 31.276C29.4474 29.1 29.9237 20.498 29.9237 20.498C29.9577 20.362 29.9577 20.192 29.9918 20.056C29.9918 20.056 32.7474 10.706 25.399 7.374C25.399 7.374 24.0722 7.068 23.0515 7.306C22.3711 7.102 21.6907 7 21.0443 7C20.8402 7 20.6701 7 20.5 7.034C20.3299 7.034 20.1598 7 19.9557 7C19.1392 7 18.2887 7.136 17.4041 7.408H17.3701H17.3361C14.9546 8.224 10.9062 11.42 11.5526 17.744C11.5186 17.778 11.5186 17.778 11.4845 17.812C10.8381 18.628 10.9062 19.784 11.1103 20.736C11.1783 22.708 11.2804 28.25 10.7361 31.038C10.566 31.072 10.3619 31.106 10.1918 31.14C8.15052 31.514 5.63299 32.432 4.13608 36.342C4.03402 36.614 4 36.92 4 37.192V41H36.932L37 37.158ZM12.8454 18.798C13.2536 18.832 13.6278 18.832 14.0361 18.798L14.5464 21.416L15.0907 18.73C15.6351 18.662 16.1794 18.56 16.6897 18.424C18.9351 17.88 20.9082 16.792 22.4052 15.772C23.4938 15.024 24.3443 14.31 24.8206 13.868C25.0928 14.65 25.9093 16.656 27.2361 18.186V20.022L27.6443 18.628L27.6783 18.662C27.6783 18.696 27.6783 18.696 27.6783 18.73C27.6783 18.73 27.7124 18.73 27.7464 18.696C27.9505 18.9 28.1546 19.07 28.3928 19.24C28.4268 19.512 28.3928 19.954 28.2567 20.6C27.7464 22.742 26.9299 22.878 26.7258 22.878C26.6917 22.878 26.6918 22.878 26.6918 22.878C26.6918 22.878 26.5897 24.884 24.7526 27.026C24.7526 27.026 24.7526 27.06 24.7526 27.094C23.3237 28.556 21.8608 29.27 20.3979 29.202C18.5608 29.134 17.132 27.876 16.4175 27.128V27.094C14.5464 24.918 14.4443 22.878 14.4443 22.878C14.4443 22.878 14.4443 22.878 14.4103 22.878C14.3082 22.878 14.0021 22.81 13.6619 22.436L13.2876 21.824C13.1515 21.518 13.0155 21.11 12.8794 20.6C12.5392 19.444 12.6412 18.968 12.8454 18.798ZM10.532 32.738C12.0969 32.466 15.9412 31.48 16.2814 30.596C16.3835 30.324 16.4175 29.814 16.4175 29.236C17.3701 29.95 18.6969 30.664 20.2278 30.732C20.3299 30.732 20.3979 30.732 20.5 30.732C21.8948 30.732 23.2897 30.222 24.5825 29.202C24.5825 29.78 24.6165 30.324 24.7186 30.596C25.0588 31.514 28.9031 32.466 30.468 32.738C31.4546 32.908 32.5773 33.214 33.5979 34.2C29.1072 35.764 25.0928 36.444 21.5887 36.614L20.534 37.668L19.5134 36.648C11.9608 36.614 7.40206 34.2 7.40206 34.2C8.42268 33.214 9.54536 32.908 10.532 32.738Z" fill="#ADB4BF"/>
</g>
</svg>
