<svg width="32" height="32" viewBox="0 0 32 32" fill="none" xmlns="http://www.w3.org/2000/svg">
    <path d="M21.501 19.5055C21.501 23.9275 17.024 27.5115 11.501 27.5115C10.271 27.5115 9.092 27.3335 8.004 27.0085C7.837 26.9585 4.495 29.4995 4.495 29.4995L4.509 25.1935C2.69 23.7435 1.5 21.7235 1.5 19.5065C1.5 15.0845 5.977 11.5005 11.5 11.5005C17.024 11.4995 21.501 15.0845 21.501 19.5055Z" stroke="#332F2E" stroke-miterlimit="10" stroke-linecap="round" stroke-linejoin="round"/>
    <path d="M23.507 18.1355C23.662 18.0965 23.815 18.0535 23.967 18.0085C24.134 17.9585 27.454 20.4995 27.454 20.4995L27.477 16.1935C29.305 14.7435 30.5 12.7235 30.5 10.5065C30.5 6.08447 26.002 2.50049 20.453 2.50049C15.778 2.50049 11.848 5.04545 10.727 8.49146C10.63 8.79146 10.553 9.18849 10.5 9.50049" stroke="#332F2E" stroke-miterlimit="10" stroke-linecap="round" stroke-linejoin="round"/>
    <path d="M7.00098 16.4995H16.001" stroke="#332F2E" stroke-miterlimit="10" stroke-linecap="round" stroke-linejoin="round"/>
    <path d="M7.00098 22.4995H16.001" stroke="#332F2E" stroke-miterlimit="10" stroke-linecap="round" stroke-linejoin="round"/>
    <path d="M7.00098 19.4995H16.001" stroke="#332F2E" stroke-miterlimit="10" stroke-linecap="round" stroke-linejoin="round"/>
</svg>
