<svg width="32" height="32" viewBox="0 0 32 32" fill="none" xmlns="http://www.w3.org/2000/svg">
    <path d="M26.1377 11.655V29.4872C26.1377 29.7691 25.9204 29.9999 25.6549 29.9999H6.34458C6.07906 29.9999 5.86182 29.7691 5.86182 29.4872V11.6724" stroke="#332F2E" stroke-miterlimit="10"/>
    <path d="M1.99976 15.4332L16.0007 2L29.9998 15.5172" stroke="#332F2E" stroke-miterlimit="10" stroke-linecap="round" stroke-linejoin="round"/>
    <path d="M5.86182 26.1379H12.6204" stroke="#332F2E" stroke-miterlimit="10"/>
    <path d="M19.3792 26.1379H26.1378" stroke="#332F2E" stroke-miterlimit="10"/>
    <path d="M12.6204 30L12.6339 17.93C12.6339 17.6645 12.8511 17.4482 13.1157 17.4482H18.8972C19.1627 17.4482 19.379 17.6655 19.379 17.93L19.3655 30" stroke="#332F2E" stroke-miterlimit="10"/>
    <path d="M17.4481 23.7241C17.7147 23.7241 17.9308 23.5079 17.9308 23.2413C17.9308 22.9747 17.7147 22.7585 17.4481 22.7585C17.1815 22.7585 16.9653 22.9747 16.9653 23.2413C16.9653 23.5079 17.1815 23.7241 17.4481 23.7241Z" fill="#332F2E"/>
    <path d="M20.3442 6.0002V3.43482C20.3442 3.17702 20.5576 2.96558 20.8173 2.96558H23.7322C23.9929 2.96558 24.2053 3.17702 24.2053 3.43482V9.7242" stroke="#332F2E" stroke-miterlimit="10"/>
</svg>
