<svg width="32" height="32" viewBox="0 0 32 32" fill="none" xmlns="http://www.w3.org/2000/svg">
    <path d="M8.63503 23.3808C10.9074 25.6539 13.7808 26.4669 15.0518 25.1955C15.7936 25.8877 17.0486 29.658 17.0486 29.658C17.0486 29.658 20.591 26.1144 20.1906 22.5708C33.129 9.62792 30.2206 1.78867 30.2206 1.78867L30.2116 1.77964C30.2116 1.77964 22.3751 -1.12873 9.43676 11.8132C5.89441 11.4127 2.35205 14.9563 2.35205 14.9563C2.35205 14.9563 6.12106 16.2117 6.81295 16.9538C5.54198 18.2252 6.35367 21.0987 8.62704 23.3728L8.63503 23.3808Z" stroke="#332F2E" stroke-miterlimit="10" stroke-linecap="round" stroke-linejoin="round"/>
    <path d="M13.2393 27.9891C11.545 28.5943 8.82332 27.5686 6.59587 25.3404C4.36643 23.1101 3.34107 20.3865 3.9491 18.6917L1.5 30.5L13.2393 27.9891Z" stroke="#332F2E" stroke-miterlimit="10" stroke-linecap="round" stroke-linejoin="round"/>
    <path d="M23.7257 10.3792C24.8924 10.3792 25.8383 9.43299 25.8383 8.26581C25.8383 7.09862 24.8924 6.15234 23.7257 6.15234C22.5589 6.15234 21.613 7.09862 21.613 8.26581C21.613 9.43299 22.5589 10.3792 23.7257 10.3792Z" stroke="#332F2E" stroke-miterlimit="10" stroke-linecap="round" stroke-linejoin="round"/>
    <path d="M14.124 12.4773C14.413 12.4773 14.6473 12.2431 14.6473 11.9541C14.6473 11.665 14.413 11.4307 14.124 11.4307C13.8349 11.4307 13.6006 11.665 13.6006 11.9541C13.6006 12.2431 13.8349 12.4773 14.124 12.4773Z" fill="#332F2E"/>
    <path d="M17.0814 15.4358C17.3705 15.4358 17.6048 15.2016 17.6048 14.9126C17.6048 14.6235 17.3705 14.3892 17.0814 14.3892C16.7924 14.3892 16.5581 14.6235 16.5581 14.9126C16.5581 15.2016 16.7924 15.4358 17.0814 15.4358Z" fill="#332F2E"/>
    <path d="M20.0385 18.3941C20.3275 18.3941 20.5618 18.1597 20.5618 17.8707C20.5618 17.5816 20.3275 17.3474 20.0385 17.3474C19.7494 17.3474 19.5151 17.5816 19.5151 17.8707C19.5151 18.1597 19.7494 18.3941 20.0385 18.3941Z" fill="#332F2E"/>
</svg>
