<svg width="32" height="32" viewBox="0 0 32 32" fill="none" xmlns="http://www.w3.org/2000/svg">
    <path d="M12.9998 30.5C19.351 30.5 24.4998 25.3513 24.4998 19C24.4998 12.6487 19.351 7.5 12.9998 7.5C6.64848 7.5 1.49976 12.6487 1.49976 19C1.49976 25.3513 6.64848 30.5 12.9998 30.5Z" stroke="#332F2E" stroke-miterlimit="10" stroke-linecap="round" stroke-linejoin="round"/>
    <path d="M9.49976 23.4C10.5168 24.326 12.0857 25 13.2188 25C15.0308 25 16.4998 23.657 16.4998 22C16.4998 20.343 14.8958 19.613 13.2188 19C11.4438 18.418 10.3017 17.657 10.3017 16C10.3017 14.343 11.7707 13 13.5827 13C14.8027 13 15.9348 13.696 16.4998 14.6" stroke="#332F2E" stroke-miterlimit="10" stroke-linecap="round" stroke-linejoin="round"/>
    <path d="M13.4998 11.5V26.5" stroke="#332F2E" stroke-miterlimit="10" stroke-linecap="round" stroke-linejoin="round"/>
    <path d="M10.2769 5.505C12.3859 3.053 15.5119 1.5 18.9999 1.5C25.3509 1.5 30.4999 6.649 30.4999 13C30.4999 16.37 29.0499 19.402 26.7399 21.505" stroke="#332F2E" stroke-miterlimit="10" stroke-linecap="round" stroke-linejoin="round"/>
</svg>
