<svg width="30" height="30" viewBox="0 0 30 30" fill="none" xmlns="http://www.w3.org/2000/svg">
<path d="M15 0C9.48602 0 5 4.56736 5 10.1814C5 12.4374 6.30453 15.8684 9.10546 20.9787C11.0168 24.4657 12.9192 27.411 12.9995 27.5351L14.3746 29.6572C14.5132 29.8712 14.7481 30 15 30C15.2519 30 15.4868 29.8712 15.6254 29.6572L17.0004 27.5352C17.0799 27.4126 18.9686 24.4927 20.8945 20.9787C23.6955 15.8686 25 12.4376 25 10.1814C25 4.56736 20.514 0 15 0ZM19.5861 20.2352C17.6869 23.7001 15.8281 26.5741 15.7497 26.6949L15 27.8519L14.2505 26.6952C14.1718 26.5734 12.2987 23.6736 10.4139 20.2352C7.81585 15.4949 6.4985 12.1122 6.4985 10.1814C6.4985 5.40862 10.3122 1.52569 15 1.52569C19.6878 1.52569 23.5015 5.40862 23.5015 10.1814C23.5015 12.1125 22.1841 15.495 19.5861 20.2352Z" fill="#95CE5A"/>
<path d="M15 4.47278C11.9428 4.47278 9.45557 7.00517 9.45557 10.1178C9.45557 13.2305 11.9428 15.7629 15 15.7629C18.0572 15.7629 20.5444 13.2305 20.5444 10.1178C20.5444 7.00517 18.0572 4.47278 15 4.47278ZM15 14.2372C12.769 14.2372 10.9541 12.3893 10.9541 10.1178C10.9541 7.84638 12.769 5.99846 15 5.99846C17.231 5.99846 19.0459 7.84638 19.0459 10.1178C19.0459 12.3893 17.231 14.2372 15 14.2372Z" fill="#95CE5A"/>
</svg>
