<svg width="31" height="30" viewBox="0 0 31 30" fill="none" xmlns="http://www.w3.org/2000/svg">
	<path fill-rule="evenodd" clip-rule="evenodd" d="M15.3334 30C23.6177 30 30.3334 23.2842 30.3334 15C30.3334 6.71582 23.6177 0 15.3334 0C7.04907 0 0.333374 6.71582 0.333374 15C0.333374 23.2842 7.04907 30 15.3334 30ZM23.1929 10.1396C23.8094 10.1396 23.9391 10.457 23.8094 10.8892C23.5503 12.0771 21.0658 15.5776 21.0658 15.5776C20.8497 15.9229 20.7634 16.0957 21.0658 16.4849C21.1656 16.6245 21.3717 16.8291 21.6115 17.0635L21.6609 17.1123L21.6656 17.1167C21.9315 17.3779 22.231 17.6709 22.47 17.9536C23.3459 18.939 24.0062 19.7705 24.1901 20.3433C24.3582 20.918 24.0668 21.2095 23.4841 21.2095H21.4449C20.8989 21.2095 20.6239 20.9038 20.0299 20.2432C19.7778 19.9629 19.4684 19.6187 19.0566 19.207C17.8468 18.04 17.3282 17.8887 17.0259 17.8887C16.873 17.8887 16.76 17.9048 16.6783 17.9551C16.5409 18.0405 16.4927 18.2222 16.4927 18.5879V20.4165C16.4927 20.918 16.3323 21.2095 15.0361 21.2095C12.8756 21.2095 10.5016 19.8979 8.81653 17.4785C6.28894 13.9355 5.59753 11.2563 5.59753 10.7163C5.59753 10.4141 5.71411 10.1396 6.29663 10.1396H8.33594C8.85706 10.1396 9.0531 10.3677 9.24854 10.9326C10.2458 13.8374 11.9274 16.3765 12.6188 16.3765C12.8779 16.3765 12.9969 16.2568 12.9969 15.5986V12.5962C12.9501 11.7407 12.6514 11.3716 12.4302 11.0977C12.2937 10.9287 12.1866 10.7964 12.1866 10.6084C12.1866 10.3804 12.3816 10.1396 12.7056 10.1396H15.9099C16.3422 10.1396 16.4858 10.3706 16.4858 10.8892V14.9292C16.4858 15.1821 16.5525 15.3384 16.6337 15.4248C16.6912 15.4863 16.7561 15.5122 16.8098 15.5122C17.0691 15.5122 17.2852 15.3613 17.7604 14.8857C19.2295 13.2437 20.2665 10.7163 20.2665 10.7163C20.3961 10.4141 20.6351 10.1396 21.1537 10.1396H23.1929Z" fill="white"/>
</svg>