<svg width="31" height="30" viewBox="0 0 31 30" fill="none" xmlns="http://www.w3.org/2000/svg">
	<path fill-rule="evenodd" clip-rule="evenodd" d="M15.6666 30C23.9509 30 30.6666 23.2842 30.6666 15C30.6666 6.71582 23.9509 0 15.6666 0C7.38232 0 0.666626 6.71582 0.666626 15C0.666626 23.2842 7.38232 30 15.6666 30ZM23.3331 11.1489C23.1499 10.4619 22.6078 9.91943 21.918 9.73389C20.6708 9.40039 15.6666 9.40039 15.6666 9.40039C15.6666 9.40039 10.665 9.40039 9.41528 9.73389C8.72803 9.91699 8.18591 10.4595 8.00012 11.1489C7.66663 12.3965 7.66663 15 7.66663 15C7.66663 15 7.66663 17.604 8.00012 18.8511C8.18335 19.5386 8.72546 20.0806 9.41528 20.2666C10.665 20.6001 15.6666 20.6001 15.6666 20.6001C15.6666 20.6001 20.6708 20.6001 21.918 20.2666C22.6052 20.083 23.1473 19.541 23.3331 18.8511C23.6666 17.604 23.6666 15 23.6666 15C23.6666 15 23.6666 12.3965 23.3331 11.1489ZM14.0682 17.4004L18.2247 15L14.0682 12.5996V17.4004Z" fill="white"/>
</svg>