<svg width="30" height="30" viewBox="0 0 30 30" fill="none" xmlns="http://www.w3.org/2000/svg">
<path d="M15 0C6.72 0 0 6.72 0 15C0 23.28 6.72 30 15 30C23.28 30 30 23.28 30 15C30 6.72 23.28 0 15 0ZM15 27.87C7.92 27.87 2.13 22.08 2.13 15C2.13 7.92 7.92 2.13 15 2.13C22.08 2.13 27.87 7.89 27.87 15C27.87 22.08 22.08 27.87 15 27.87Z" fill="#95CE5A"/>
<path d="M14.31 5.34C13.71 5.34 13.23 5.82 13.23 6.42V16.05C13.26 16.65 13.74 17.13 14.34 17.13H20.85C21.45 17.13 21.93 16.65 21.93 16.05C21.93 15.45 21.45 14.97 20.85 14.97H15.36V6.39C15.36 5.79 14.91 5.34 14.31 5.34Z" fill="#95CE5A"/>
</svg>
