<svg width="35" height="35" viewBox="0 0 35 35" fill="none" xmlns="http://www.w3.org/2000/svg">
<circle cx="17.5" cy="17.5" r="17" stroke="#ADB4BF"/>
<path d="M16.755 20.9429C15.2865 20.7944 13.9624 20.4435 12.8287 19.5835C12.6881 19.4765 12.5428 19.3733 12.4145 19.2538C11.9183 18.7916 11.8683 18.2622 12.2609 17.7166C12.5968 17.2497 13.1606 17.1248 13.7467 17.3929C13.8602 17.4449 13.9683 17.5097 14.0719 17.5794C16.1846 18.9875 19.087 19.0264 21.2077 17.6427C21.4178 17.4864 21.6424 17.359 21.9027 17.294C22.4088 17.1679 22.8808 17.3483 23.1524 17.7778C23.4627 18.2683 23.4587 18.7471 23.0764 19.128C22.4899 19.7119 21.7846 20.1343 21.001 20.4291C20.2599 20.7078 19.4483 20.848 18.645 20.9412C18.7662 21.0692 18.8233 21.1321 18.8991 21.206C19.9899 22.2691 21.0855 23.3277 22.1727 24.394C22.5431 24.7573 22.6205 25.2079 22.4165 25.6305C22.1935 26.0923 21.6944 26.3962 21.2049 26.3637C20.8948 26.3429 20.653 26.1932 20.4381 25.9832C19.6149 25.1798 18.7763 24.3911 17.9698 23.5725C17.7351 23.3344 17.6222 23.3794 17.4151 23.5861C16.587 24.4131 15.7454 25.2273 14.8988 26.0369C14.5187 26.4004 14.0663 26.4659 13.6255 26.2582C13.1569 26.0379 12.8587 25.5739 12.8817 25.1076C12.8976 24.7922 13.0575 24.5512 13.2807 24.3351C14.3602 23.2896 15.4367 22.2413 16.5136 21.1941C16.5848 21.1244 16.6513 21.0505 16.755 20.9429Z" fill="#ADB4BF"/>
<path d="M17.6497 17.3006C15.0299 17.292 12.8816 15.1853 12.8969 12.64C12.9119 10.0667 15.0616 7.9929 17.7072 8.00002C20.3583 8.00695 22.4861 10.1105 22.4728 12.7107C22.4593 15.2507 20.2962 17.3095 17.6497 17.3006ZM20.0307 12.6462C20.0261 11.3824 18.9885 10.3763 17.6882 10.3752C16.377 10.3738 15.33 11.3982 15.3402 12.6735C15.3499 13.9325 16.3964 14.9315 17.7003 14.9268C19.0002 14.9224 20.0351 13.9098 20.0307 12.6462Z" fill="#ADB4BF"/>
</svg>
