<svg width="30" height="30" viewBox="0 0 30 30" fill="none" xmlns="http://www.w3.org/2000/svg">
<path d="M29.2127 22.1361L25.4936 18.3842C24.4739 17.3637 22.7943 17.3637 21.7746 18.3842L20.065 20.095C19.2852 20.8754 18.0255 20.8754 17.2457 20.095L9.89752 12.7414C9.11772 11.961 9.11772 10.7004 9.89752 9.91996C10.1675 9.64983 10.9473 8.86944 11.6071 8.20911C12.6268 7.18859 12.6568 5.50775 11.6071 4.48724L7.85804 0.765383C6.83829 -0.255128 5.15871 -0.255128 4.13896 0.765383C3.35916 1.51576 3.11922 1.78589 2.7893 2.11606C-0.929768 5.83792 -0.929768 11.8709 2.7893 15.5628L14.4264 27.2086C18.1455 30.9305 24.144 30.9305 27.863 27.2086L29.2127 25.8579C30.2624 24.8374 30.2624 23.1566 29.2127 22.1361ZM5.36866 1.996C5.69858 1.66583 6.26843 1.66583 6.59835 1.996L10.3174 5.71786C10.6473 6.04802 10.6473 6.61831 10.3174 6.94848L9.68758 7.57879L4.76881 2.62631L5.36866 1.996ZM15.6561 25.978L4.01899 14.3022C1.16971 11.4507 0.989752 6.94847 3.53911 3.88694L8.48788 8.83942C7.1982 10.3102 7.22819 12.5613 8.63784 13.972L15.986 21.3257C17.3956 22.7364 19.6451 22.7964 21.1147 21.4757L26.0935 26.4582C23.0342 28.9795 18.5354 28.8594 15.6561 25.978ZM27.983 24.5973L27.3532 25.2276L22.3744 20.2451L23.0042 19.6148C23.3342 19.2846 23.904 19.2846 24.2339 19.6148L27.953 23.3367C28.3129 23.6968 28.3129 24.2671 27.983 24.5973Z" fill="#95CE5A"/>
</svg>
