<svg width="42" height="42" viewBox="0 0 42 42" fill="none" xmlns="http://www.w3.org/2000/svg">
<circle cx="21" cy="21" r="20.5" fill="#F1F4F7" stroke="#CDD3DD"/>
<mask id="mask0" mask-type="alpha" maskUnits="userSpaceOnUse" x="1" y="1" width="40" height="40">
<circle cx="21" cy="21" r="19.5" fill="#F1F4F7" stroke="#CDD3DD"/>
</mask>
<g mask="url(#mask0)">
<path d="M40 4.0382H2V42.0002H40V4.0382Z" fill="#F1F4F7"/>
<path d="M21.076 9.61826L14.274 11.5164L11.082 17.2486L14.464 26.1697L15.414 29.89L10.588 32.5094L20.012 36.3056L29.968 31.7881L26.396 29.89L26.814 25.9799L29.892 20.6272L30.044 15.9959L21.076 9.61826Z" fill="white"/>
<path d="M39.2399 36.7992C37.5679 32.4336 34.7559 31.4086 32.4759 30.991C30.5759 30.6493 28.2199 29.966 27.3839 29.4725C27.3459 29.0929 27.3459 28.3337 27.4219 27.0809C27.4599 27.043 27.4979 26.967 27.5739 26.9291L27.5359 26.8911C28.6379 25.4106 29.1699 23.968 29.4359 23.019C30.1579 22.5255 30.9179 21.5005 31.3739 19.6024C31.6399 18.5015 31.8299 17.0969 31.0319 16.0719C30.9939 16.034 30.9939 16.034 30.9559 15.996C31.6779 8.97303 27.1559 5.4046 24.4959 4.45554H24.4579H24.4199C23.4699 4.15185 22.5199 4.03796 21.6459 4C21.6459 4 21.6459 4 21.6079 4H21.5699C21.3419 4 21.1519 4 20.9619 4.03796C20.7719 4.03796 20.5819 4 20.3539 4C19.4419 4 18.4919 4.15185 17.5039 4.45554H17.4659H17.4279C14.7679 5.36663 10.2459 8.93506 10.9679 15.996C10.9299 16.034 10.9299 16.034 10.8919 16.0719C10.0939 17.0589 10.2839 18.4635 10.5499 19.6024C11.0059 21.5385 11.7659 22.5255 12.4879 23.019C12.7159 23.968 13.2479 25.3347 14.3499 26.8531C14.4259 26.9291 14.4639 27.005 14.5399 27.1189C14.6159 28.3337 14.6159 29.0929 14.5779 29.4725C13.7419 29.9281 11.3859 30.6494 9.48595 30.953C7.20595 31.3706 4.39395 32.3956 2.72195 36.7612C2.60795 37.0649 2.56995 37.3686 2.56995 37.6723V42H39.354V37.7483C39.3919 37.4446 39.354 37.1029 39.2399 36.7992ZM14.1219 21.7283C14.1219 21.7283 14.1219 21.7283 14.0839 21.7283C13.8559 21.7283 12.9059 21.5764 12.3739 19.1848C11.9559 17.3247 12.4119 17.0589 12.7159 17.0589C12.8679 17.0589 12.9819 17.1349 12.9819 17.1349C12.9819 17.0969 12.9819 17.0969 12.9819 17.0589L13.0579 17.1349L13.8179 19.4505C13.8179 19.4505 13.3239 12.9211 16.8199 12.4276C16.8199 12.4276 20.5439 16.2617 25.1799 17.0969C25.1799 17.0969 24.1919 15.2368 23.3179 13.5664C23.3179 13.5664 26.0159 16.5654 28.334 17.0969C28.334 17.0969 28.6759 16.6414 29.0939 15.8821C29.0559 16.2617 29.0179 16.6793 28.9419 17.0969C28.9419 17.0969 29.0559 17.021 29.2079 17.021C29.5499 17.021 30.0059 17.3247 29.5499 19.1469C28.9799 21.5385 28.0679 21.6903 27.8399 21.6903C27.8019 21.6903 27.8019 21.6903 27.8019 21.6903C27.8019 21.6903 27.6879 23.9301 25.6359 26.3217C25.6359 26.3217 25.6359 26.3596 25.6359 26.3976C24.0399 28.03 22.4059 28.8272 20.7719 28.7512C18.7199 28.6753 17.1239 27.2707 16.3259 26.4356V26.3976C14.2359 24.006 14.1219 21.7283 14.1219 21.7283ZM16.2499 30.3836C16.3639 30.0799 16.4019 29.5105 16.4019 28.8651C17.4659 29.6623 18.9479 30.4595 20.6579 30.5355C20.7719 30.5355 20.8479 30.5355 20.9619 30.5355C22.5199 30.5355 24.0779 29.966 25.5219 28.8272C25.5219 29.4725 25.5599 30.0799 25.6739 30.3836C25.8639 30.8392 26.8899 31.3327 28.1059 31.7502C26.3199 33.4965 23.7739 34.5974 20.9239 34.5974C18.0739 34.5974 15.5279 33.4965 13.7419 31.7502C15.0719 31.3327 16.0979 30.8392 16.2499 30.3836Z" fill="#ADB4BF"/>
</g>
</svg>
