<svg width="35" height="35" viewBox="0 0 35 35" fill="none" xmlns="http://www.w3.org/2000/svg">
<circle cx="17.5" cy="17.5" r="17" stroke="#ADB4BF"/>
<path fill-rule="evenodd" clip-rule="evenodd" d="M25.6554 19.266C26.4515 20.01 27.2918 20.7099 28.0058 21.5289C28.3212 21.8929 28.6199 22.2684 28.8483 22.6908C29.172 23.2912 28.8788 23.9519 28.3163 23.9878L24.82 23.9863C23.9182 24.0579 23.1988 23.7104 22.5939 23.1203C22.1098 22.6483 21.6615 22.146 21.1961 21.6581C21.0052 21.4587 20.8055 21.2711 20.5669 21.1228C20.0896 20.8262 19.6753 20.917 19.4025 21.3935C19.1247 21.8781 19.0617 22.4148 19.0344 22.9549C18.997 23.7429 18.7481 23.9501 17.9211 23.9862C16.1537 24.066 14.4763 23.81 12.9181 22.9566C11.5443 22.2043 10.4789 21.1422 9.5517 19.9398C7.74634 17.5984 6.36379 15.0257 5.12121 12.3808C4.84151 11.785 5.04606 11.4651 5.73296 11.4538C6.87358 11.4326 8.01405 11.4341 9.15601 11.4523C9.61959 11.4587 9.92649 11.7132 10.1055 12.1324C10.7226 13.5848 11.4777 14.9666 12.4255 16.2475C12.6779 16.5885 12.9353 16.9295 13.3018 17.1695C13.7073 17.4352 14.016 17.3472 14.2068 16.9148C14.3278 16.6407 14.3808 16.3454 14.4081 16.0518C14.4984 15.0417 14.5104 14.0334 14.3519 13.0268C14.2546 12.3986 13.8849 11.992 13.23 11.8731C12.8958 11.8125 12.9456 11.6935 13.1074 11.5109C13.3884 11.196 13.6527 11 14.1796 11H18.1311C18.7532 11.1175 18.8913 11.385 18.9765 11.9841L18.9799 16.1854C18.9731 16.4173 19.1009 17.1056 19.5374 17.2591C19.8867 17.3684 20.117 17.1009 20.3265 16.8889C21.2726 15.9278 21.9479 14.7919 22.5511 13.6158C22.8188 13.0986 23.049 12.5615 23.2721 12.0249C23.4373 11.6267 23.6967 11.4307 24.1653 11.4394L27.9684 11.4427C28.0811 11.4427 28.1952 11.4443 28.3044 11.4621C28.9453 11.5667 29.1209 11.8305 28.923 12.4295C28.6111 13.3693 28.0043 14.1524 27.411 14.9392C26.7768 15.7791 26.0985 16.5904 25.4696 17.4353C24.8917 18.2069 24.9376 18.5958 25.6554 19.266Z" fill="#ADB4BF"/>
</svg>
